<svg width="142" height="56" viewBox="0 0 142 56" fill="none" xmlns="http://www.w3.org/2000/svg">
<g clip-path="url(#clip0_368_3517)">
<path d="M19.138 33.9843L33.8596 42.899C34.7429 43.4408 34.7429 44.7706 33.8596 45.3124L19.138 54.1778C18.2057 54.7196 17.0279 54.0793 17.0279 52.9958V35.1664C17.0279 34.0828 18.2057 33.3933 19.138 33.9843ZM17.0279 1.37922V19.2086C17.0279 20.2922 18.2057 20.9817 19.138 20.3907L33.8596 11.476C34.7429 10.9342 34.7429 9.60437 33.8596 9.0626L19.138 0.197163C18.2057 -0.344614 17.0279 0.295668 17.0279 1.37922ZM0 18.2728V36.0529C0 37.1365 1.17772 37.826 2.11009 37.235L16.8316 28.3203C17.7149 27.7785 17.7149 26.4487 16.8316 25.9069L2.11009 16.9922C1.17772 16.549 0 17.1892 0 18.2728ZM34.0068 18.2728V36.0529C34.0068 37.1365 35.1845 37.826 36.1169 37.235L50.8384 28.3203C51.7217 27.7785 51.7217 26.4487 50.8384 25.9069L36.1169 16.9922C35.1845 16.549 34.0068 17.1892 34.0068 18.2728Z" fill="#CF4520"/>
<path d="M71.154 12.0668C71.9391 12.4609 72.528 13.0026 72.9206 13.6922C73.3131 14.3817 73.5585 15.219 73.5585 16.2041C73.5585 17.1398 73.3622 17.9771 72.9206 18.7159C72.528 19.4547 71.9391 19.9965 71.154 20.3413C70.3688 20.7353 69.4855 20.9323 68.455 20.9323H66.0996V24.5277H63.4006V11.4758H68.455C69.4855 11.4758 70.3688 11.6728 71.154 12.0668ZM70.1235 17.8786C70.5651 17.4846 70.7614 16.9428 70.7614 16.2041C70.7614 15.4653 70.5651 14.9235 70.1235 14.5295C69.6818 14.1354 69.093 13.9384 68.2587 13.9384H66.0505V18.4697H68.2587C69.093 18.4697 69.7309 18.2727 70.1235 17.8786ZM83.0784 21.7696H77.6315L76.601 24.577H73.8039L79.0055 11.5251H81.7044L86.9551 24.577H84.1089L83.0784 21.7696ZM82.1951 19.4547L80.3304 14.4802L78.5148 19.4547H82.1951ZM88.918 11.4758H98.3398V13.8892H91.5679V16.5981H94.8066C96.2297 16.5981 97.3093 16.9428 98.0453 17.5831C98.7814 18.2234 99.174 19.2084 99.174 20.4398C99.174 21.7203 98.7814 22.7546 97.9472 23.4934C97.113 24.2322 95.9353 24.577 94.4631 24.577H88.918V11.4758V11.4758ZM94.3159 22.3113C95.0029 22.3113 95.5427 22.1636 95.8862 21.8681C96.2297 21.5726 96.426 21.1293 96.426 20.5383C96.426 19.4055 95.6899 18.8144 94.2668 18.8144H91.5679V22.3113H94.3159ZM103.934 23.8874C102.953 23.2964 102.216 22.5084 101.628 21.4741C101.088 20.4398 100.793 19.307 100.793 18.0264C100.793 16.7458 101.088 15.613 101.628 14.5787C102.167 13.5444 102.953 12.7564 103.934 12.1654C104.915 11.5743 105.995 11.2788 107.222 11.2788C108.449 11.2788 109.528 11.5743 110.51 12.1654C111.491 12.7564 112.227 13.5444 112.816 14.5787C113.356 15.613 113.65 16.7458 113.65 18.0264C113.65 19.307 113.356 20.4398 112.816 21.4741C112.276 22.5084 111.491 23.2964 110.51 23.8874C109.528 24.4785 108.449 24.774 107.222 24.774C106.044 24.774 104.915 24.4785 103.934 23.8874ZM109.087 21.6711C109.626 21.3263 110.068 20.8338 110.411 20.1935C110.706 19.5532 110.902 18.8637 110.902 18.0264C110.902 17.2383 110.755 16.4996 110.411 15.8593C110.117 15.219 109.675 14.7265 109.087 14.3817C108.547 14.0369 107.909 13.8399 107.222 13.8399C106.535 13.8399 105.897 14.0369 105.357 14.3817C104.817 14.7265 104.376 15.219 104.032 15.8593C103.738 16.4996 103.541 17.2383 103.541 18.0264C103.541 18.8144 103.689 19.5532 104.032 20.1935C104.327 20.8338 104.768 21.3263 105.357 21.6711C105.897 22.0158 106.535 22.2128 107.222 22.2128C107.909 22.2128 108.547 22.0158 109.087 21.6711ZM124.937 13.9384H121.207V24.5277H118.557V13.9384H114.828V11.4758H124.986V13.9384H124.937ZM134.26 21.7696H128.813L127.783 24.577H124.986L130.187 11.5251H132.886L138.137 24.577H135.291L134.26 21.7696ZM133.377 19.4547L131.512 14.4802L129.648 19.4547H133.377ZM71.0558 30.3887C71.841 30.7828 72.4298 31.3245 72.8224 32.0141C73.215 32.7036 73.4604 33.5409 73.4604 34.5259C73.4604 35.4617 73.2641 36.299 72.8224 37.0378C72.4298 37.7766 71.841 38.3184 71.0558 38.6631C70.2707 39.0572 69.3874 39.2542 68.3569 39.2542H66.0014V42.8496H63.3025V29.847H68.3569C69.3874 29.847 70.2707 30.044 71.0558 30.3887ZM70.0744 36.2498C70.5161 35.8558 70.7123 35.314 70.7123 34.5752C70.7123 33.8364 70.5161 33.2946 70.0744 32.9006C69.6328 32.5066 69.0439 32.3096 68.2097 32.3096H66.0014V36.8408H68.2097C69.0439 36.8408 69.6328 36.6438 70.0744 36.2498ZM78.4166 42.2093C77.4352 41.6183 76.6991 40.8303 76.1102 39.796C75.5705 38.7617 75.276 37.6288 75.276 36.3483C75.276 35.0677 75.5705 33.9349 76.1102 32.9006C76.65 31.8663 77.4352 31.0783 78.4166 30.4872C79.3981 29.8962 80.4776 29.6007 81.7044 29.6007C82.9312 29.6007 84.0108 29.8962 84.9922 30.4872C85.9737 31.0783 86.7098 31.8663 87.2986 32.9006C87.8384 33.9349 88.1328 35.0677 88.1328 36.3483C88.1328 37.6288 87.8384 38.7617 87.2986 39.796C86.7588 40.8303 85.9737 41.6183 84.9922 42.2093C84.0108 42.8003 82.9312 43.0959 81.7044 43.0959C80.5267 43.0959 79.3981 42.8003 78.4166 42.2093ZM83.6182 39.993C84.158 39.6482 84.5997 39.1557 84.9432 38.5154C85.2376 37.8751 85.4339 37.1856 85.4339 36.3483C85.4339 35.5602 85.2867 34.8215 84.9432 34.1812C84.6487 33.5409 84.2071 33.0484 83.6182 32.7036C83.0784 32.3588 82.4405 32.1618 81.7535 32.1618C81.0665 32.1618 80.4286 32.3588 79.8888 32.7036C79.349 33.0484 78.9073 33.5409 78.5638 34.1812C78.2694 34.8215 78.0731 35.511 78.0731 36.3483C78.0731 37.1363 78.2203 37.8751 78.5638 38.5154C78.8583 39.1557 79.2999 39.6482 79.8888 39.993C80.4286 40.3377 81.0665 40.5347 81.7535 40.5347C82.3914 40.5347 83.0294 40.3377 83.6182 39.993ZM93.2363 42.2586C92.2549 41.6675 91.5188 40.8795 90.979 39.8452C90.4392 38.8109 90.1448 37.6781 90.1448 36.3483C90.1448 35.0677 90.4392 33.8857 90.979 32.8514C91.5188 31.8171 92.3039 31.029 93.2363 30.438C94.2177 29.847 95.2973 29.5515 96.4751 29.5515C97.5056 29.5515 98.3888 29.7485 99.2231 30.1425C100.057 30.5365 100.744 31.1275 101.284 31.8663L99.5666 33.6394C98.7814 32.6051 97.8 32.1126 96.6223 32.1126C95.8862 32.1126 95.2483 32.3096 94.6594 32.6544C94.0705 32.9991 93.6289 33.4916 93.3345 34.1319C93.04 34.7722 92.8437 35.4617 92.8437 36.299C92.8437 37.0871 92.9909 37.8259 93.3345 38.4661C93.6289 39.1064 94.1196 39.5989 94.6594 39.9437C95.2483 40.2885 95.8862 40.4855 96.6223 40.4855C97.8 40.4855 98.7814 39.993 99.5666 38.9587L101.284 40.7317C100.744 41.4705 100.057 42.0616 99.2231 42.4556C98.3888 42.8496 97.4565 43.0466 96.4751 43.0466C95.2973 43.0959 94.2177 42.8004 93.2363 42.2586ZM105.995 42.2586C105.014 41.6675 104.277 40.8795 103.738 39.8452C103.198 38.8109 102.903 37.6781 102.903 36.3483C102.903 35.0677 103.198 33.8857 103.738 32.8514C104.277 31.8171 105.063 31.029 105.995 30.438C106.976 29.847 108.056 29.5515 109.234 29.5515C110.264 29.5515 111.148 29.7485 111.982 30.1425C112.816 30.5365 113.503 31.1275 114.043 31.8663L112.325 33.6394C111.54 32.6051 110.559 32.1126 109.381 32.1126C108.645 32.1126 108.007 32.3096 107.418 32.6544C106.829 32.9991 106.388 33.4916 106.093 34.1319C105.799 34.7722 105.602 35.4617 105.602 36.299C105.602 37.0871 105.75 37.8259 106.093 38.4661C106.388 39.1064 106.878 39.5989 107.418 39.9437C108.007 40.2885 108.645 40.4855 109.381 40.4855C110.559 40.4855 111.54 39.993 112.325 38.9587L114.043 40.7317C113.503 41.4705 112.816 42.0616 111.982 42.4556C111.148 42.8496 110.215 43.0466 109.234 43.0466C108.056 43.0959 106.976 42.8004 105.995 42.2586ZM116.595 29.847H119.293V38.3676L124.888 29.847H127.439V42.8989H124.789V34.3782L119.195 42.8496H116.644V29.847H116.595ZM131.071 29.847H133.77V38.3676L139.364 29.847H141.916V42.8989H139.266V34.3782L133.671 42.8496H131.12V29.847H131.071Z" fill="#0033A0"/>
</g>
<defs>
<clipPath id="clip0_368_3517">
<rect width="141.867" height="56" fill="white"/>
</clipPath>
</defs>
</svg>
